<svg xmlns="http://www.w3.org/2000/svg" viewBox="0 0 300 240">
<ellipse cx="150" cy="228" rx="110" ry="10" fill="#00000022"/>
<rect x="35" y="190" width="230" height="32" rx="14" fill="#D9A15B"/>
<rect x="20" y="180" width="260" height="18" rx="8" fill="#7CB342"/>
<ellipse cx="34" cy="189" rx="11" ry="9" fill="#E63946"/>
<ellipse cx="266" cy="189" rx="11" ry="9" fill="#E63946"/>
<rect x="45" y="156" width="210" height="28" rx="10" fill="#6B3F2A"/>
<rect x="55" y="160" width="70" height="10" rx="5" fill="#C1440E" transform="rotate(-8 90 165)"/>
<rect x="175" y="160" width="70" height="10" rx="5" fill="#C1440E" transform="rotate(8 210 165)"/>
<rect x="50" y="132" width="200" height="26" rx="8" fill="#F4C430"/>
<rect x="35" y="36" width="230" height="102" rx="51.0" fill="#E8A33D"/><rect x="35" y="87.0" width="230" height="51.0" rx="0" fill="#E8A33D"/>
<ellipse cx="95" cy="62" rx="5" ry="7" fill="#FFF3D6"/>
<ellipse cx="125" cy="50" rx="5" ry="7" fill="#FFF3D6"/>
<ellipse cx="150" cy="44" rx="5" ry="7" fill="#FFF3D6"/>
<ellipse cx="175" cy="50" rx="5" ry="7" fill="#FFF3D6"/>
<ellipse cx="205" cy="62" rx="5" ry="7" fill="#FFF3D6"/>
<ellipse cx="112" cy="76" rx="5" ry="7" fill="#FFF3D6"/>
<ellipse cx="188" cy="76" rx="5" ry="7" fill="#FFF3D6"/>
</svg>